<svg t="1765089937668" class="icon" viewBox="0 0 1024 1024" version="1.1" xmlns="http://www.w3.org/2000/svg" p-id="4865" width="200" height="200"><path d="M744.09472 536.79616a35.14368 35.14368 0 0 0-52.32128-16.128 35.1488 35.1488 0 0 0-12.94336 16.04608l-83.6608 208.9216a29.07136 29.07136 0 0 0 53.98016 21.62688l18.10432-45.20448h87.9616l17.95584 45.12768a29.07648 29.07648 0 1 0 54.03648-21.48864l-83.11296-208.90112z m-53.52448 127.10912l20.84352-52.0448 20.70016 52.0448h-41.54368z m198.98368-159.54944a29.07648 29.07648 0 0 0-29.07648 29.07648v223.01696a29.06624 29.06624 0 0 0 49.63328 20.5568 29.07136 29.07136 0 0 0 8.51968-20.5568v-223.01696a29.07136 29.07136 0 0 0-29.07648-29.07648z" p-id="4866"></path><path d="M768.9728 246.11328l-201.94304-116.59264a172.86144 172.86144 0 0 0-172.3904 0L192.69632 246.1184A172.86144 172.86144 0 0 0 106.496 395.43296v233.1648a172.87168 172.87168 0 0 0 86.20032 149.28896l201.94304 116.59264a172.87168 172.87168 0 0 0 172.3904 0l63.96416-36.92544a29.0816 29.0816 0 0 0-29.07648-50.36544l-63.96416 36.93568a113.88416 113.88416 0 0 1-29.50144 11.8784c-0.13824-52.39296-0.27136-109.32224-0.39936-166.27712-0.128-54.7584-0.256-109.50144-0.384-160.19456l283.3664-170.4448a113.9456 113.9456 0 0 1 5.99552 36.34688v43.33056a29.07136 29.07136 0 1 0 58.15296 0v-43.33056a172.85632 172.85632 0 0 0-86.21056-149.31968zM423.7056 179.87584a114.59584 114.59584 0 0 1 114.23744 0l201.95328 116.60288a113.26464 113.26464 0 0 1 19.1744 13.93664L481.27488 477.5936 211.89632 302.88896c3.1744-2.30912 6.47168-4.4544 9.87136-6.41024l201.93792-116.60288z m-201.9328 547.6608a114.58048 114.58048 0 0 1-57.12384-98.93888v-233.1648c0-16.30208 3.49184-32.4096 10.25536-47.24736l274.60608 178.08384c0.128 51.6352 0.26624 107.61728 0.38912 163.60448 0.128 56.60672 0.26624 113.20832 0.39424 165.36576a113.69984 113.69984 0 0 1-26.57792-11.10528l-201.94816-116.59776z" p-id="4867"></path><path d="M459.63776 520.75008l0.01024 5.49376c0.128 51.6352 0.26112 107.61728 0.38912 163.60448 0.128 56.60672 0.26624 113.21344 0.38912 165.36576l0.03584 13.3376-12.85632-3.53792a123.74528 123.74528 0 0 1-28.95872-12.09856l-201.94304-116.60288-0.01536-0.00512a124.7232 124.7232 0 0 1-62.17728-107.69408V395.43296c0-17.75616 3.80416-35.3024 11.16672-51.456l4.87936-10.69056 289.0752 187.46368z m21.19168-366.2592c20.4544 0 40.57088 5.02784 58.59328 14.6176l3.57888 1.98144 0.01024 0.00512 201.95328 116.60288a123.1616 123.1616 0 0 1 20.8896 15.18592l10.1632 9.1648L481.0752 489.5488 194.00704 303.37536l11.91936-8.6784c2.60096-1.8944 5.2736-3.6864 8.01792-5.36064l2.7648-1.64352 201.92768-116.59776h0.01024a124.75392 124.75392 0 0 1 62.1824-16.60416z m364.2112 240.95232a162.72896 162.72896 0 0 0-81.152-140.55936l-201.92768-116.5824a162.7136 162.7136 0 0 0-162.25792-0.00512v0.00512l-201.9328 116.57728v0.00512A162.74432 162.74432 0 0 0 116.6336 395.4432v233.1392l0.1024 5.33504a162.69824 162.69824 0 0 0 81.024 135.1936l201.9328 116.5824a162.74432 162.74432 0 0 0 162.28352 0l63.9488-36.92032a18.944 18.944 0 0 0 6.93248-25.86624 18.93888 18.93888 0 0 0-24.20224-7.79264l-1.66912 0.85504-63.96416 36.93568-0.01024 0.00512a123.96032 123.96032 0 0 1-32.128 12.928l-12.53888 3.10272-0.03584-12.91776a458867.8144 458867.8144 0 0 1-0.39424-166.272c-0.128-54.76352-0.256-109.50656-0.384-160.19456l-0.01024-5.74976 299.0848-179.90144 4.03456 11.93984c4.30592 12.7488 6.50752 26.112 6.52288 39.57248v43.35104a18.944 18.944 0 0 0 32.33792 13.38368 18.93376 18.93376 0 0 0 5.53984-13.38368v-43.32544z m-364.2112-220.672c-18.27328 0-36.22912 4.7872-52.0704 13.89568v-0.00512l-198.0416 114.35008 250.752 162.63168 259.7888-156.34432c-1.34656-0.91648-2.7136-1.80736-4.10624-2.6624l-2.32448-1.3824-201.93792-116.59264a104.46336 104.46336 0 0 0-52.06016-13.89568z m384.4864 263.99744a39.1936 39.1936 0 0 1-39.20896 39.20896 39.20896 39.20896 0 0 1-39.2192-39.20896v-43.32544l-0.08192-4.21376a103.77216 103.77216 0 0 0-2.04288-16.5376l-266.94144 160.56832c0.12288 49.06496 0.24576 101.74976 0.36864 154.4448 0.11776 51.98848 0.24064 103.95648 0.36352 152.4736a104.1408 104.1408 0 0 0 14.336-6.8352l63.95904-36.93056 1.71008-0.93184a39.20896 39.20896 0 0 1 51.85536 15.28832 39.18848 39.18848 0 0 1-14.35136 53.56544l-63.96416 36.92544-0.01024 0.01024a183.00928 183.00928 0 0 1-182.5024 0l-0.01536-0.01024-201.94816-116.59264-0.01024-0.01024a182.94784 182.94784 0 0 1-91.25376-158.04416V395.4176l0.1024-6.00064a182.99904 182.99904 0 0 1 91.15136-152.07424l0.01024-0.01024 201.94816-116.5824 0.01536-0.01536a182.9888 182.9888 0 0 1 177.2544-2.90816l5.248 2.90304 0.01024 0.01536 201.94304 116.58752 0.01024 0.01024a182.99392 182.99392 0 0 1 91.264 158.07488v43.35104zM174.78656 628.5824l0.06144 3.42016a104.40192 104.40192 0 0 0 51.98848 86.74816l201.95328 116.60288a103.424 103.424 0 0 0 11.32544 5.632c-0.11776-48.13312-0.23552-99.6096-0.35328-151.0912-0.12288-54.00576-0.256-108.0064-0.384-158.1056L179.84 363.45856a103.74656 103.74656 0 0 0-5.04832 31.9744v233.14944z" p-id="4868"></path></svg>