<svg t="1765124938939" class="icon" viewBox="0 0 1024 1024" version="1.1" xmlns="http://www.w3.org/2000/svg" p-id="7392" width="200" height="200"><path d="M883.754667 346.794667l-10.496 24.149333a21.589333 21.589333 0 0 1-39.850667 0l-10.496-24.149333a186.154667 186.154667 0 0 0-94.72-96l-32.384-14.464a22.613333 22.613333 0 0 1 0-41.088l30.592-13.610667a186.282667 186.282667 0 0 0 96.042667-99.242667l10.794666-26.069333a21.589333 21.589333 0 0 1 40.192 0l10.794667 26.026667a186.282667 186.282667 0 0 0 96 99.285333l30.634667 13.653333a22.613333 22.613333 0 0 1 0 41.045334l-32.426667 14.421333a186.154667 186.154667 0 0 0-94.677333 96.042667zM127.658667 128H597.333333v85.333333H170.666667v597.333334L597.333333 384l256 256v-170.666667h85.333334v384.298667a42.666667 42.666667 0 0 1-42.325334 42.368H127.658667A42.368 42.368 0 0 1 85.333333 853.632V170.368A42.666667 42.666667 0 0 1 127.658667 128zM853.333333 760.661333l-256-256L291.328 810.666667H853.333333v-50.005334zM341.333333 469.333333a85.333333 85.333333 0 1 1 0-170.666666 85.333333 85.333333 0 0 1 0 170.666666z" p-id="7393"></path></svg>