<svg t="1765130330466" class="icon" viewBox="0 0 1024 1024" version="1.1" xmlns="http://www.w3.org/2000/svg" p-id="14283" width="200" height="200"><path d="M511.90778 1023.998548a507.184413 507.184413 0 0 1-215.810988-47.633957 83.625328 83.625328 0 0 1-23.628272-134.953347l27.928481-27.939918A63.622497 63.622497 0 1 0 210.435727 723.52149L182.518683 751.392787a83.648202 83.648202 0 0 1-134.953347-23.651146A512.308065 512.308065 0 0 1 670.866811 25.160793a36.597518 36.597518 0 1 1-22.690461 69.581031A438.712744 438.712744 0 0 0 513.737656 73.195036h-1.715509C272.251222 73.195036 75.585311 267.676532 73.195036 507.561825a435.052993 435.052993 0 0 0 40.726175 189.334971 9.84702 9.84702 0 0 0 7.491054 5.718362 10.373109 10.373109 0 0 0 9.343804-2.939238l27.905607-27.905608a136.82897 136.82897 0 0 1 193.497939 193.486502L324.219697 893.208168a10.384546 10.384546 0 0 0-2.927801 9.343804 9.84702 9.84702 0 0 0 5.718362 7.491055 434.721328 434.721328 0 0 0 184.920395 40.783358h4.345956c117.672456-1.143672 227.590814-47.851254 309.557816-131.602386S952.221666 624.307906 950.769202 506.486773a433.80639 433.80639 0 0 0-49.795498-197.786711 36.597518 36.597518 0 1 1 64.83479-33.967071A511.473184 511.473184 0 0 1 516.939939 1023.975674z" p-id="14284"></path><path d="M512.365249 694.209165a36.597518 36.597518 0 0 1-29.243704-58.567465l439.261707-585.560284a36.597518 36.597518 0 1 1 58.544592 43.917021l-439.250271 585.560285A36.597518 36.597518 0 0 1 512.365249 694.209165zM513.508921 895.072354a36.597518 36.597518 0 0 1-33.326614-51.728304 36.597518 36.597518 0 0 1-51.739741-33.338051A85.066355 85.066355 0 1 1 513.508921 895.072354z m0-96.926238a11.882757 11.882757 0 0 0-11.871319 11.859883 36.597518 36.597518 0 0 1-3.259467 15.142223 36.334473 36.334473 0 0 1 15.130786-3.270903 11.87132 11.87132 0 1 0 0-23.731203z" p-id="14285"></path></svg>