<svg t="1765125722521" class="icon" viewBox="0 0 1024 1024" version="1.1" xmlns="http://www.w3.org/2000/svg" p-id="10815" width="200" height="200"><path d="M895.596969 302.735327l3.839918-2.047957c20.031574-12.799728 32.063319-34.687263 32.319313-58.622754a72.95845 72.95845 0 0 0-33.023298-61.566692L551.028291 10.645534A71.934471 71.934471 0 0 0 477.429855 9.621556L139.517035 168.210186l-3.839918 2.047956c-20.095573 12.799728-32.127317 34.623264-32.383312 58.750752-0.127997 24.703475 12.159742 47.806984 33.151296 61.502693l347.640612 169.724393a71.230486 71.230486 0 0 0 73.598436 1.023978l337.976818-158.58863zM523.828869 403.597184c-1.343971 0.831982-3.391928 0.639986-5.119892-0.51199L172.028344 233.87279a5.951874 5.951874 0 0 1-1.919959-4.351907c0-1.023978 0.319993-1.791962 0.639987-2.175954l336.632846-157.948644 3.839919-1.983958c1.279973-0.895981 3.327929-0.639986 5.119891 0.51199l346.616634 169.212404c1.663965 1.535967 1.919959 3.391928 1.919959 4.415906 0 1.023978-0.255995 1.727963-0.639986 2.111955l-336.632847 157.820646-3.775919 2.175954z m405.943373-61.438695a71.486481 71.486481 0 0 0-72.062468-0.383992l-294.329746 151.676777c-23.231506 13.695709-37.759198 39.423162-37.887195 67.198572l-2.367949 384.631827c-0.127997 28.543393 14.719687 54.910833 38.783175 68.734539a72.510459 72.510459 0 0 0 71.806475 0.767984l291.001816-127.805284 3.519925-1.91996c23.231506-13.695709 37.759198-39.423162 37.951194-67.198572l2.367949-406.903353c0.127997-28.607392-14.719687-54.974832-38.783176-68.798538z m-30.399354 475.253901a12.287739 12.287739 0 0 1-4.159911 9.4078l-289.977838 127.357294-3.519925 1.85596a5.951874 5.951874 0 0 1-6.527862 0.127998c-1.279973-0.767984-5.311887-3.519925-5.311887-10.303781l2.36795-384.695826c0-4.287909 2.047956-8.319823 3.391928-9.151805l294.329745-151.676777a6.655859 6.655859 0 0 1 3.263931-1.023978c1.023978 0 1.983958 0.255995 3.263931 1.023978 1.279973 0.703985 5.247888 3.519925 5.247888 10.239782l-2.36795 406.839355zM458.934248 492.68329L167.99643 342.734477a72.318463 72.318463 0 0 0-73.790432-0.511989A78.526331 78.526331 0 0 0 55.422822 410.893029l2.36795 406.967351c0.255995 27.711411 14.719687 53.438864 37.887195 67.198572l294.58574 129.533248a72.894451 72.894451 0 0 0 71.678477-0.639986c24.127487-13.823706 38.911173-40.191146 38.783176-68.670541l-2.36795-384.695825c0-27.519415-14.59169-53.374866-39.423162-67.902558z m-30.079361 463.350154c-2.943937 1.663965-5.119891 0.895981-6.59186-0.063998L128.637266 826.884189a12.095743 12.095743 0 0 1-4.095913-9.4078l-2.303951-406.903354c0-6.783856 4.031914-9.727793 5.311888-10.303781 2.879939-1.663965 4.863897-0.895981 8.127827 0.95998l290.937817 149.756818c3.135933 1.919959 5.119891 5.823876 5.119892 10.111785l2.431948 384.567828c0 6.911853-4.031914 9.791792-5.311887 10.431778z" p-id="10816"></path></svg>